<svg xmlns="http://www.w3.org/2000/svg" version="1.1" xmlns:xlink="http://www.w3.org/1999/xlink" width="500" height="500"><svg version="1.1" xmlns="http://www.w3.org/2000/svg" width="500" height="500">
<path d="M0 0 C0.99871141 -0.00128164 0.99871141 -0.00128164 2.01759881 -0.00258917 C4.24086076 -0.00423173 6.46404668 0.00125731 8.68730164 0.00672913 C10.28407794 0.00701129 11.88085438 0.0068527 13.47763062 0.00628662 C17.80778633 0.00599978 22.13791432 0.01187828 26.46806359 0.01886058 C30.99509557 0.02511289 35.52212819 0.0256994 40.04916382 0.02688599 C48.61966752 0.02999376 57.19015846 0.03819969 65.76065654 0.04823548 C75.51874711 0.0594138 85.2768383 0.0649114 95.03493369 0.06993091 C115.10615656 0.08038275 135.17736794 0.09797149 155.24858093 0.12025452 C156.58067846 2.78444958 156.38055967 4.82065699 156.39042664 7.80409241 C156.40097832 9.59219078 156.40097832 9.59219078 156.41174316 11.41641235 C156.41590744 12.71215683 156.42007172 14.00790131 156.42436218 15.34291077 C156.43478951 16.68613468 156.44621258 18.02935121 156.45858765 19.37255859 C156.51096989 25.07805371 156.55894139 30.78342107 156.57450867 36.489151 C156.58465704 39.98009341 156.61415995 43.47043155 156.65582848 46.96113396 C156.67396126 48.92450049 156.67150291 50.88802286 156.6685791 52.85147095 C156.7690251 60.24671958 157.67377443 65.64209383 161.24858093 72.12025452 C161.9269268 73.7822019 162.60057669 75.44624355 163.24858093 77.12025452 C163.90858093 77.12025452 164.56858093 77.12025452 165.24858093 77.12025452 C165.24858093 77.78025452 165.24858093 78.44025452 165.24858093 79.12025452 C165.90858093 79.12025452 166.56858093 79.12025452 167.24858093 79.12025452 C167.24858093 79.78025452 167.24858093 80.44025452 167.24858093 81.12025452 C167.92920593 81.38837952 168.60983093 81.65650452 169.31108093 81.93275452 C171.47442398 82.80729745 173.61784095 83.73153131 175.74858093 84.68275452 C180.63392006 86.68923309 184.88103241 87.24536816 190.14042664 87.32557678 C191.30125259 87.345522 192.46207855 87.36546722 193.65808105 87.38601685 C194.90095383 87.40272934 196.1438266 87.41944183 197.42436218 87.43666077 C199.34480598 87.46783241 199.34480598 87.46783241 201.30404663 87.49963379 C204.69547822 87.55463024 208.08696828 87.60413764 211.47850037 87.65248108 C214.94423072 87.70286068 218.40987696 87.75846053 221.87553406 87.81361389 C228.66648254 87.92062881 235.45749424 88.02242586 242.24858093 88.12025452 C242.34201995 116.79687769 242.41255812 145.47347804 242.45582962 174.15022278 C242.47645532 187.46533121 242.50457617 200.78030436 242.55033875 214.09535217 C242.59020608 225.70065658 242.6160137 237.30589248 242.62493491 248.91126347 C242.63014977 255.05630027 242.64240714 261.20114111 242.67150116 267.34611511 C242.69866837 273.13104103 242.70702315 278.9156904 242.70101166 284.70067406 C242.7021113 286.82267955 242.7100572 288.94469438 242.72540283 291.06664467 C242.74535084 293.96750257 242.74050227 296.86732098 242.729599 299.76820374 C242.74125036 300.60480058 242.75290173 301.44139742 242.76490617 302.30334568 C242.68309469 310.37498345 239.37377995 316.57894876 234.02201843 322.51478577 C226.56405585 329.26637745 218.8115098 330.27047518 209.17272949 330.26069641 C207.79870587 330.26515309 207.79870587 330.26515309 206.3969242 330.26969981 C203.32638971 330.27837384 200.25589428 330.27989397 197.18534851 330.28138733 C194.98411476 330.28601643 192.7828818 330.29104122 190.58164978 330.2964325 C184.60006053 330.30954997 178.6184825 330.31600024 172.63688111 330.32044315 C168.89879534 330.32337506 165.16071263 330.3274801 161.4226284 330.33194733 C149.72408797 330.34562083 138.02555398 330.35530393 126.32700616 330.35914922 C124.9814471 330.35959268 123.63588804 330.36003924 122.29032898 330.36048889 C121.62289127 330.36071032 120.95545356 330.36093175 120.26779046 330.36115989 C109.4595673 330.3651056 98.65141165 330.38255379 87.84321455 330.40584841 C76.73498553 330.42959555 65.62678456 330.44176813 54.51852912 330.44319034 C48.28635907 330.44423775 42.05428427 330.45013207 35.82213783 330.46800995 C29.95754652 330.48450617 24.09312189 330.48663849 18.22851562 330.47787094 C16.07994324 330.47710139 13.93136184 330.48143241 11.78281212 330.49132919 C8.84146126 330.5040797 5.90069803 330.49815489 2.95935059 330.48774719 C2.11642623 330.4958036 1.27350188 330.50386 0.40503436 330.51216054 C-7.28314803 330.44887738 -15.51826215 328.89900815 -21.75141907 324.12025452 C-21.75141907 323.46025452 -21.75141907 322.80025452 -21.75141907 322.12025452 C-23.07141907 321.46025452 -24.39141907 320.80025452 -25.75141907 320.12025452 C-25.75141907 319.46025452 -25.75141907 318.80025452 -25.75141907 318.12025452 C-26.41141907 318.12025452 -27.07141907 318.12025452 -27.75141907 318.12025452 C-31.65210892 311.07465749 -32.3246274 305.12400417 -32.25935364 297.15820312 C-32.2655936 295.98009475 -32.27183356 294.80198637 -32.27826262 293.58817774 C-32.29139941 290.34009692 -32.28675003 287.09262039 -32.27431774 283.84455526 C-32.26523367 280.3332485 -32.27925346 276.82202081 -32.29023743 273.31072998 C-32.30799105 266.4411081 -32.30419698 259.57166138 -32.29258686 252.70203274 C-32.28354108 247.11782376 -32.28233348 241.53366375 -32.28668213 235.94944954 C-32.28729506 235.15367469 -32.28790799 234.35789985 -32.2885395 233.53801062 C-32.28981844 231.92125426 -32.29111529 230.30449791 -32.29242986 228.68774159 C-32.30382622 213.5403462 -32.29073643 198.39304778 -32.2692284 183.2456683 C-32.25135481 170.25581714 -32.25446547 157.26610896 -32.27290344 144.27626038 C-32.29432093 129.18028983 -32.3027313 114.08440416 -32.29045439 98.98842055 C-32.28918023 97.37802829 -32.28792275 95.76763601 -32.28668213 94.15724373 C-32.28606503 93.36496056 -32.28544792 92.57267739 -32.28481212 91.75638564 C-32.28136211 86.18004745 -32.28717996 80.60376322 -32.29660034 75.0274334 C-32.30783132 68.23013596 -32.30475714 61.43302323 -32.28347737 54.63574689 C-32.27298212 51.16935877 -32.26881873 47.70327837 -32.28207397 44.2368927 C-32.29300002 40.47606204 -32.27929935 36.7160977 -32.25935364 32.95532227 C-32.27273797 31.31859532 -32.27273797 31.31859532 -32.28639269 29.64880317 C-32.19493513 20.76172532 -29.58059082 14.38561217 -23.59126282 7.72572327 C-16.72765623 1.73646147 -8.86470356 -0.00686654 0 0 Z M83.01420593 137.92884827 C77.97244618 144.18643061 76.56175229 150.21288896 76.86576843 158.19837952 C77.71493727 164.67979062 80.28175961 169.10517216 84.68608093 173.80775452 C86.77396178 176.49141954 87.26548073 177.65973494 87.13920593 181.10072327 C86.36449706 184.84084556 85.36199884 188.47091044 84.24858093 192.12025452 C83.56893377 194.4396134 82.8981123 196.7611224 82.23612976 199.08558655 C81.79827736 200.60801439 81.34582029 202.12634656 80.87626648 203.63929749 C79.30118744 208.95210703 79.04617948 213.57883092 79.24858093 219.12025452 C81.65514088 220.32353449 83.16301879 220.24711075 85.85014343 220.24964905 C87.28172791 220.25437729 87.28172791 220.25437729 88.74223328 220.25920105 C89.775578 220.25717682 90.80892273 220.25515259 91.87358093 220.25306702 C92.93141785 220.25402374 93.98925476 220.25498047 95.07914734 220.25596619 C97.31856852 220.25664753 99.55799166 220.25479645 101.79740906 220.25062561 C105.23430294 220.24527674 108.67106614 220.25057218 112.10795593 220.25697327 C114.27983122 220.25631248 116.45170643 220.2550313 118.62358093 220.25306702 C119.65692566 220.25509125 120.69027039 220.25711548 121.75492859 220.25920105 C122.70931824 220.25604889 123.66370789 220.25289673 124.64701843 220.24964905 C125.48925964 220.24885345 126.33150085 220.24805786 127.19926453 220.24723816 C129.31446556 220.25024612 129.31446556 220.25024612 131.24858093 219.12025452 C131.50185892 213.06211886 130.70243532 208.20703615 128.93608093 202.43275452 C128.47709128 200.85389544 128.02007322 199.27446193 127.56498718 197.69447327 C127.34085144 196.92280823 127.1167157 196.15114319 126.88578796 195.35609436 C125.9768391 192.16676343 125.15654219 188.96814154 124.37358093 185.74525452 C124.12865906 184.74752014 123.88373718 183.74978577 123.63139343 182.72181702 C123.0699316 178.90616822 123.54489086 177.09025337 125.80717468 173.97181702 C126.42721375 173.23705139 127.04725281 172.50228577 127.68608093 171.74525452 C133.11610234 164.89096519 134.19697184 158.76114943 133.24858093 150.12025452 C131.61113079 143.87139075 129.27215566 139.30656679 124.24858093 135.12025452 C123.76131531 134.67939514 123.27404968 134.23853577 122.77201843 133.78431702 C116.06022489 127.82975146 109.70254023 127.58846466 101.13529968 127.81556702 C93.10079015 128.44540796 88.43141715 132.13840399 83.01420593 137.92884827 Z " fill="#7FC157" transform="translate(144.7514190673828,84.87974548339844)"></path>
<path d="M0 0 C0.33 0 0.66 0 1 0 C2.22436843 27.5378435 2.28405724 55.10170822 2.3410759 82.66173363 C2.35762712 90.52863461 2.3913099 98.395056 2.44759309 106.26177639 C2.48633888 111.87270659 2.50582608 117.48350745 2.51111281 123.09456784 C2.51473876 126.4173745 2.5290518 129.73953653 2.55921555 133.06222343 C2.59082371 136.74295572 2.590914 140.42243923 2.58349609 144.10327148 C2.59990143 145.18013214 2.61630676 146.2569928 2.63320923 147.3664856 C2.56852268 155.21646499 0.74272763 161.10168915 -4.77359962 166.84732723 C-12.46307887 173.90724994 -20.03869874 175.15062482 -30.07585144 175.14044189 C-30.99186719 175.14341302 -31.90788293 175.14638414 -32.85165673 175.1494453 C-35.92219122 175.15811933 -38.99268666 175.15963946 -42.06323242 175.16113281 C-44.26446618 175.16576192 -46.46569913 175.1707867 -48.66693115 175.17617798 C-54.6485204 175.18929546 -60.63009843 175.19574573 -66.61169982 175.20018864 C-70.34978559 175.20312054 -74.0878683 175.20722559 -77.82595253 175.21169281 C-89.52449296 175.22536631 -101.22302696 175.23504941 -112.92157477 175.2388947 C-114.26713383 175.23933816 -115.61269289 175.23978472 -116.95825195 175.24023438 C-117.62568966 175.2404558 -118.29312738 175.24067723 -118.98079047 175.24090537 C-129.78901364 175.24485108 -140.59716929 175.26229928 -151.40536638 175.2855939 C-162.51359541 175.30934103 -173.62179638 175.32151361 -184.73005182 175.32293582 C-190.96222186 175.32398323 -197.19429666 175.32987755 -203.4264431 175.34775543 C-209.29103441 175.36425165 -215.15545904 175.36638398 -221.02006531 175.35761642 C-223.16863769 175.35684687 -225.31721909 175.3611779 -227.46576881 175.37107468 C-230.40711967 175.38382518 -233.3478829 175.37790037 -236.28923035 175.36749268 C-237.1321547 175.37554908 -237.97507905 175.38360548 -238.84354657 175.39190602 C-246.53172896 175.32862287 -254.76684309 173.77875363 -261 169 C-261 168.34 -261 167.68 -261 167 C-262.32 166.34 -263.64 165.68 -265 165 C-265 164.34 -265 163.68 -265 163 C-265.66 163 -266.32 163 -267 163 C-269.83384835 158.08799619 -270.11459137 152.88174467 -270.22460938 147.30859375 C-270.24712769 146.21305176 -270.269646 145.11750977 -270.29284668 143.98876953 C-270.36463605 138.98038512 -270.42138899 133.97213259 -270.45996094 128.96337891 C-270.48651083 126.33526326 -270.5273717 123.70725066 -270.58300781 121.07958984 C-270.95386416 103.32540087 -271.04063907 90.70056384 -258.75 77.0625 C-254.60424411 73.23124973 -250.04542476 70.26418704 -245.1875 67.41015625 C-242.88075476 66.1860535 -242.88075476 66.1860535 -242 64 C-241.34 64 -240.68 64 -240 64 C-239.67 63.34 -239.34 62.68 -239 62 C-236.69 62 -234.38 62 -232 62 C-232 61.01 -232 60.02 -232 59 C-230.02 58.505 -230.02 58.505 -228 58 C-228 58.66 -228 59.32 -228 60 C-226.02013918 59.88652381 -224.04108402 59.7589065 -222.0625 59.625 C-220.40927734 59.52058594 -220.40927734 59.52058594 -218.72265625 59.4140625 C-217.37494141 59.20910156 -217.37494141 59.20910156 -216 59 C-215.505 58.01 -215.505 58.01 -215 57 C-208.62772345 55.65195984 -201.86491573 55.87137232 -195.37890625 55.9375 C-194.51232895 55.94128662 -193.64575165 55.94507324 -192.75291443 55.94897461 C-190.02272211 55.96105299 -187.29264274 55.97969974 -184.5625 56 C-180.93880522 56.02658199 -177.31516156 56.04654221 -173.69140625 56.0625 C-172.86330948 56.07079834 -172.03521271 56.07909668 -171.18202209 56.08764648 C-167.85877282 56.10193394 -165.17603306 56.05867769 -162 55 C-161 57 -161 57 -161 64 C-143.18 64.33 -125.36 64.66 -107 65 C-107 62.36 -107 59.72 -107 57 C-106.34741211 56.93530518 -105.69482422 56.87061035 -105.02246094 56.80395508 C-93.41561592 55.61989427 -81.95267757 54.30544081 -70.625 51.4375 C-69.79452148 51.22778564 -68.96404297 51.01807129 -68.10839844 50.80200195 C-64.64950442 49.87975158 -62.00047388 49.00031592 -59 47 C-57.55463698 46.48302559 -56.09446743 46.00634938 -54.625 45.5625 C-51.05892788 44.41790588 -48.17566941 43.00568594 -45 41 C-43.9275 40.566875 -42.855 40.13375 -41.75 39.6875 C-37.84848303 38.07748536 -34.52224108 35.79454197 -31.0625 33.3984375 C-29 32 -29 32 -26.375 30.625 C-23.26904603 28.4998736 -21.18591398 25.80136101 -18.76953125 22.9375 C-15.6614547 19.53439632 -12.39654969 17.46551656 -8 16 C-7.896875 15.236875 -7.79375 14.47375 -7.6875 13.6875 C-6.93200845 10.73421485 -6.13007477 10.04132166 -4 8 C-3.65657551 6.66923011 -3.32380126 5.33568021 -3 4 C-1.5 1.75 -1.5 1.75 0 0 Z " fill="#05763D" transform="translate(384,240)"></path>
<path d="M0 0 C2.475 0.99 2.475 0.99 5 2 C5 2.66 5 3.32 5 4 C5.66 4 6.32 4 7 4 C7 4.66 7 5.32 7 6 C7.66 6 8.32 6 9 6 C10.48046875 7.5390625 10.48046875 7.5390625 12.1875 9.625 C15.1100663 13.08787267 18.15830902 15.97510908 21.71484375 18.7734375 C22.13894531 19.17820312 22.56304687 19.58296875 23 20 C23 20.66 23 21.32 23 22 C23.66 22 24.32 22 25 22 C25 22.66 25 23.32 25 24 C25.66 24 26.32 24 27 24 C27 24.66 27 25.32 27 26 C27.598125 26.268125 28.19625 26.53625 28.8125 26.8125 C30.99847854 27.99917406 32.41332594 29.09599113 34 31 C34 31.66 34 32.32 34 33 C34.66 33 35.32 33 36 33 C36 33.66 36 34.32 36 35 C36.66 35 37.32 35 38 35 C38 35.66 38 36.32 38 37 C38.66 37 39.32 37 40 37 C41.31787109 38.33691406 41.31787109 38.33691406 42.8984375 40.265625 C47.36198032 45.5127727 52.20307592 50.35363842 57.08007812 55.21044922 C58.63268755 56.75766083 60.1798296 58.31019727 61.7265625 59.86328125 C62.72624175 60.86230023 63.72623088 61.86100924 64.7265625 62.859375 C66.06581787 64.19693848 66.06581787 64.19693848 67.43212891 65.56152344 C69.85710516 67.8643056 72.38213573 69.9233961 75 72 C78 75.51724138 78 75.51724138 78 78 C70.61062441 78.11647085 63.22145061 78.20500427 55.83133888 78.25906086 C52.39878258 78.28502161 48.96685978 78.32016534 45.53466797 78.37719727 C41.57787987 78.44252573 37.62133741 78.46629239 33.6640625 78.48828125 C32.44699615 78.51408768 31.22992981 78.5398941 29.97598267 78.56648254 C21.27466198 78.56931429 14.37387588 77.06048668 7.85610962 71.00971985 C0.09439616 62.85373358 -0.42967766 55.51124648 -0.29296875 44.62890625 C-0.28660149 42.71270729 -0.28660149 42.71270729 -0.28010559 40.75779724 C-0.2662045 37.38251703 -0.2393115 34.00785948 -0.20599365 30.63275146 C-0.17515321 27.18035221 -0.1615706 23.7278883 -0.14648438 20.27539062 C-0.11347325 13.51675674 -0.06331661 6.75841427 0 0 Z " fill="#686868" transform="translate(307,88)"></path>
<path d="M0 0 C0 0.66 0 1.32 0 2 C0.66 2 1.32 2 2 2 C6.43908535 8.10374236 7.0234569 13.55041465 6 21 C4.93837563 23.98810652 3.67437473 26.27914107 2 29 C1.34 29 0.68 29 0 29 C0 29.66 0 30.32 0 31 C-0.66 31 -1.32 31 -2 31 C-2 31.66 -2 32.32 -2 33 C-2.99 33.495 -2.99 33.495 -4 34 C-3.39296659 40.26433444 -2.41634421 46.29481528 -1.0625 52.4375 C-0.70555414 54.10022285 -0.34878171 55.76298295 0.0078125 57.42578125 C0.33806506 58.95062413 0.6687516 60.47537313 1 62 C1.72343351 65.3316017 2.40432119 68.6425376 3 72 C2 73 2 73 -1.23461914 73.11352539 C-2.66814126 73.11336631 -4.10166912 73.10767407 -5.53515625 73.09765625 C-6.66503212 73.09553383 -6.66503212 73.09553383 -7.81773376 73.09336853 C-10.2326956 73.08775376 -12.64756601 73.07519883 -15.0625 73.0625 C-16.69596221 73.0574869 -18.32942586 73.05292366 -19.96289062 73.04882812 C-23.97529585 73.03777954 -27.98763241 73.02050506 -32 73 C-33.20562756 69.38311732 -32.69102642 67.79907953 -31.8203125 64.1171875 C-31.55089844 62.94929688 -31.28148437 61.78140625 -31.00390625 60.578125 C-30.71386719 59.35609375 -30.42382812 58.1340625 -30.125 56.875 C-28.32934751 49.2496264 -26.65549045 41.81546311 -26 34 C-26.66 33.67 -27.32 33.34 -28 33 C-28 32.34 -28 31.68 -28 31 C-28.66 31 -29.32 31 -30 31 C-30 30.34 -30 29.68 -30 29 C-30.66 29 -31.32 29 -32 29 C-36.68822664 22.70019545 -36.8383135 16.70078683 -36 9 C-34.9765625 6.1015625 -34.9765625 6.1015625 -34 4 C-33.34 4 -32.68 4 -32 4 C-31.62101563 3.09314453 -31.62101563 3.09314453 -31.234375 2.16796875 C-28.72672057 -2.23629774 -23.80903687 -4.41009667 -19.125 -5.9375 C-11.91129342 -6.08177413 -5.56931392 -4.68994856 0 0 Z " fill="#666666" transform="translate(265,225)"></path>
<path d="M0 0 C0.66580761 -0.00085442 1.33161521 -0.00170885 2.01759881 -0.00258917 C4.24086076 -0.00423173 6.46404668 0.00125731 8.68730164 0.00672913 C10.28407794 0.00701129 11.88085438 0.0068527 13.47763062 0.00628662 C17.80778633 0.00599978 22.13791432 0.01187828 26.46806359 0.01886058 C30.99509557 0.02511289 35.52212819 0.0256994 40.04916382 0.02688599 C48.61966752 0.02999376 57.19015846 0.03819969 65.76065654 0.04823548 C75.51874711 0.0594138 85.2768383 0.0649114 95.03493369 0.06993091 C115.10615656 0.08038275 135.17736794 0.09797149 155.24858093 0.12025452 C156.58012541 2.78334347 156.39527911 4.83770101 156.42216492 7.81996155 C156.43565475 9.01525482 156.44914459 10.2105481 156.46304321 11.44206238 C156.47870079 13.39038467 156.47870079 13.39038467 156.49467468 15.37806702 C156.51018141 16.72368675 156.52639131 18.06929856 156.54327393 19.41490173 C156.61395304 25.13137011 156.67388456 30.84791793 156.72538757 36.56459045 C156.75737454 40.0618563 156.79870808 43.5589148 156.84558296 47.0560112 C156.86919463 49.02552445 156.88229254 50.99515479 156.89517212 52.96476746 C156.98272487 59.35264789 157.3376527 65.01044498 159.24858093 71.12025452 C156.03181508 69.51187159 155.60187239 66.33432173 154.24858093 63.12025452 C153.58858093 62.46025452 152.92858093 61.80025452 152.24858093 61.12025452 C152.00134277 59.08007812 152.00134277 59.08007812 152.00566101 56.53797913 C152.00258438 55.58616257 151.99950775 54.63434601 151.99633789 53.65368652 C152.00711617 52.10379784 152.00711617 52.10379784 152.01811218 50.52259827 C152.0185704 49.45916702 152.01902863 48.39573578 152.01950073 47.30007935 C152.0225274 45.04294219 152.03042596 42.78580721 152.04277039 40.52870178 C152.06087784 37.09625215 152.06328105 33.66407476 152.06303406 30.23158264 C152.06795526 28.03691888 152.07378618 25.84225693 152.08061218 23.64759827 C152.08172501 22.62850876 152.08283783 21.60941925 152.08398438 20.55944824 C152.12256772 14.66971678 152.49195313 8.96232688 153.24858093 3.12025452 C152.25858093 3.12025452 151.26858093 3.12025452 150.24858093 3.12025452 C149.91858093 3.78025452 149.58858093 4.44025452 149.24858093 5.12025452 C148.587453 4.95654358 147.92632507 4.79283264 147.24516296 4.62416077 C143.57756676 4.00741655 140.00792632 4.01683316 136.30326843 4.05775452 C134.55310664 4.06617688 132.80294379 4.07438166 131.05278015 4.08241272 C129.61753998 4.09167282 129.61753998 4.09167282 128.15330505 4.10112 C109.60832523 4.21824264 91.07361648 4.10362235 72.5304985 3.84267044 C69.18216095 3.79598111 65.83380234 3.75133817 62.48542786 3.7073822 C60.2321624 3.6776945 57.97889702 3.64800087 55.72563171 3.61830139 C54.04428226 3.59620196 54.04428226 3.59620196 52.32896614 3.57365608 C45.53652167 3.48292798 38.74444538 3.3783392 31.95234299 3.26501179 C27.63748059 3.19629204 23.32251663 3.1404465 19.00743103 3.08780479 C16.97347299 3.06021403 14.93958112 3.02713663 12.9058075 2.98826027 C10.08759967 2.93502872 7.26975905 2.90106543 4.45121765 2.87147522 C3.63271269 2.85133865 2.81420773 2.83120209 1.97089958 2.81045532 C-3.60739665 2.7794413 -7.61902237 3.92719296 -12.75141907 6.12025452 C-15.11751172 6.83422125 -17.48692949 7.51911542 -19.86860657 8.17884827 C-22.30318102 9.39613549 -22.65551962 10.68754668 -23.75141907 13.12025452 C-26.37641907 14.87025452 -26.37641907 14.87025452 -28.75141907 16.12025452 C-25.66287546 8.82006054 -21.18049714 5.44616877 -14.25141907 2.10072327 C-9.49702632 0.23610986 -5.08094008 -0.00393566 0 0 Z " fill="#D1E49B" transform="translate(144.7514190673828,84.87974548339844)"></path>
<path d="M0 0 C0.66 0 1.32 0 2 0 C2 0.66 2 1.32 2 2 C2.680625 2.268125 3.36125 2.53625 4.0625 2.8125 C6.22584305 3.68704293 8.36926002 4.61127679 10.5 5.5625 C31.03198221 13.99527841 54.80703639 8.6173627 77 9 C77 81.93 77 154.86 77 230 C76.67 230 76.34 230 76 230 C76 157.4 76 84.8 76 10 C56.53 10 37.06 10 17 10 C11.5205515 9.21722164 9.08758255 8.85500985 4.5625 6.4375 C3.69753906 5.98246094 2.83257812 5.52742187 1.94140625 5.05859375 C1.30074219 4.70925781 0.66007812 4.35992187 0 4 C0 2.68 0 1.36 0 0 Z " fill="#CBEFD1" transform="translate(310,164)"></path>
<path d="M0 0 C0.66 0 1.32 0 2 0 C3 2 3 2 3 9 C20.82 9.33 38.64 9.66 57 10 C57 8.35 57 6.7 57 5 C57.99 6.32 58.98 7.64 60 9 C57.6875 11.5 57.6875 11.5 55 14 C54.01 14 53.02 14 52 14 C52 13.34 52 12.68 52 12 C51.22180908 12.0707373 50.44361816 12.14147461 49.6418457 12.21435547 C41.47369242 12.90654092 33.38261389 13.15273304 25.1875 13.125 C24.02541016 13.12886719 22.86332031 13.13273437 21.66601562 13.13671875 C5.88425218 13.11877473 5.88425218 13.11877473 2 10.8125 C1 9 1 9 1 3 C-16.49 3.33 -33.98 3.66 -52 4 C-51.67 3.34 -51.34 2.68 -51 2 C-44.60580063 0.64560249 -37.81691896 0.87165239 -31.30859375 0.9375 C-30.4372731 0.94128662 -29.56595245 0.94507324 -28.66822815 0.94897461 C-25.92459825 0.9610545 -23.18108067 0.97971117 -20.4375 1 C-16.79036793 1.02650853 -13.14328519 1.04649169 -9.49609375 1.0625 C-8.65767441 1.07079834 -7.81925507 1.07909668 -6.95542908 1.08764648 C-4.97008942 1.09618026 -2.98463864 1.05344029 -1 1 C-0.67 0.67 -0.34 0.34 0 0 Z " fill="#298653" transform="translate(220,295)"></path>
<path d="M0 0 C1.63692176 0.00141262 3.27384668 0.00061432 4.9107666 -0.00221252 C9.32767085 -0.00363977 13.74388814 0.02563693 18.16063356 0.06065726 C22.78636418 0.09203694 27.41211272 0.09486062 32.03793335 0.1007843 C40.78549517 0.11628876 49.53274238 0.15727096 58.28016603 0.20753175 C68.24388812 0.26353131 78.20762568 0.29093835 88.17146611 0.31600893 C108.65664089 0.36819002 129.141533 0.45606586 149.62646484 0.56762695 C149.62646484 0.89762695 149.62646484 1.22762695 149.62646484 1.56762695 C148.81439575 1.57001531 148.00232666 1.57240366 147.16564941 1.57486439 C127.3929766 1.63403775 107.62042543 1.70960285 87.84788513 1.80334187 C78.2859711 1.84827965 68.72409415 1.88769899 59.16210938 1.9140625 C50.82647355 1.93705889 42.49095525 1.9704753 34.15541267 2.01632851 C29.74307647 2.04023858 25.33085651 2.05898188 20.91845703 2.06524086 C16.76188744 2.07130175 12.60561519 2.09133775 8.44915581 2.12190247 C6.92705795 2.13066663 5.40492121 2.13440864 3.88279915 2.13263512 C-3.75585668 2.12654719 -10.36673345 2.23012354 -17.37353516 5.56762695 C-19.73962781 6.28159369 -22.10904558 6.96648785 -24.49072266 7.6262207 C-26.92529711 8.84350793 -27.27763571 10.13491912 -28.37353516 12.56762695 C-30.99853516 14.31762695 -30.99853516 14.31762695 -33.37353516 15.56762695 C-30.46671224 8.69695461 -26.08858887 4.77380309 -19.5002327 1.61124611 C-13.18862855 -0.49542104 -6.57700432 -0.07992158 0 0 Z " fill="#B9D182" transform="translate(149.37353515625,85.432373046875)"></path>
<path d="M0 0 C0.33 0 0.66 0 1 0 C1.90448799 20.93552931 2.11033666 41.85875359 2.125 62.8125 C2.12749756 64.06610321 2.12999512 65.31970642 2.13256836 66.61129761 C2.1385116 70.24740288 2.13694591 73.88342484 2.1328125 77.51953125 C2.13479645 78.59983612 2.1367804 79.68014099 2.13882446 80.79318237 C2.11743312 87.90653236 1.69319839 94.92092756 1 102 C1.99 102 2.98 102 4 102 C4.12375 101.21625 4.2475 100.4325 4.375 99.625 C5.30688255 95.7110933 7.87270543 94.29334935 11 92 C11.66 92.33 12.32 92.66 13 93 C12.13375 93.721875 11.2675 94.44375 10.375 95.1875 C5.66907439 99.81499352 3.50778932 106.00620566 1 112 C0.67 112 0.34 112 0 112 C0 75.04 0 38.08 0 0 Z " fill="#60A35E" transform="translate(114,224)"></path>
<path d="M0 0 C2.0625 0.4375 2.0625 0.4375 4 1 C3.401875 1.391875 2.80375 1.78375 2.1875 2.1875 C-0.30558536 4.2531993 -1.42627816 6.18041504 -3 9 C-3.67546875 9.9075 -4.3509375 10.815 -5.046875 11.75 C-7.22955431 15.38197838 -7.58076373 17.48950034 -7.75 21.6875 C-7.77892334 22.33050049 -7.80784668 22.97350098 -7.83764648 23.63598633 C-8.13571221 31.24889301 -8.0763347 38.87404135 -8.01831055 46.49093628 C-7.90736268 61.69393731 -8.09270265 76.81897106 -9 92 C-9.33 92 -9.66 92 -10 92 C-10.06966467 82.2290425 -10.1228947 72.45814458 -10.15543652 62.68698883 C-10.17105893 58.14930924 -10.1922343 53.6118002 -10.22631836 49.07421875 C-10.25903441 44.69107905 -10.27687875 40.30810289 -10.28463173 35.92485046 C-10.29015333 34.25678434 -10.30093553 32.58872666 -10.31719017 30.92073059 C-10.3391278 28.57521573 -10.3419602 26.23036739 -10.34057617 23.88476562 C-10.351362 23.2028717 -10.36214783 22.52097778 -10.3732605 21.81842041 C-10.3400069 16.57336587 -9.12114195 12.72543323 -7 8 C-4.9375 6.8125 -4.9375 6.8125 -3 6 C-1.78130071 3.49552484 -1.78130071 3.49552484 -1 1 C-0.67 0.67 -0.34 0.34 0 0 Z " fill="#9CC367" transform="translate(124,92)"></path>
<path d="M0 0 C2.02601415 0.02511454 4.05205827 0.04792213 6.078125 0.06835938 C11.01116446 0.12310337 15.94274812 0.20920177 20.875 0.3125 C20.875 0.6425 20.875 0.9725 20.875 1.3125 C19.30202148 1.33437378 19.30202148 1.33437378 17.69726562 1.35668945 C13.77570918 1.41502633 9.85470585 1.49225437 5.93359375 1.57495117 C4.24227939 1.60803509 2.55085901 1.63611759 0.859375 1.65893555 C-1.58378939 1.69278836 -4.02599655 1.74511508 -6.46875 1.80078125 C-7.58799866 1.81036613 -7.58799866 1.81036613 -8.7298584 1.82014465 C-14.10878551 1.96799218 -18.16037034 3.23359893 -23.125 5.3125 C-25.49109265 6.02646673 -27.86051042 6.7113609 -30.2421875 7.37109375 C-32.67676195 8.58838098 -33.02910055 9.87979217 -34.125 12.3125 C-36.75 14.0625 -36.75 14.0625 -39.125 15.3125 C-36.3366531 8.72186187 -31.98902033 4.41663432 -25.63378906 1.34008789 C-17.41205741 -1.06773764 -8.48654256 -0.1830783 0 0 Z " fill="#BED585" transform="translate(155.125,85.6875)"></path>
<path d="M0 0 C0.66 0 1.32 0 2 0 C2 0.66 2 1.32 2 2 C2.680625 2.268125 3.36125 2.53625 4.0625 2.8125 C6.22584305 3.68704293 8.36926002 4.61127679 10.5 5.5625 C15.35269798 7.55557238 19.57623478 8.12424311 24.80004883 8.20532227 C26.51125664 8.2352401 26.51125664 8.2352401 28.2570343 8.26576233 C29.47803329 8.28247482 30.69903229 8.29918732 31.95703125 8.31640625 C33.21513107 8.33718735 34.4732309 8.35796844 35.76945496 8.37937927 C39.10172286 8.43360465 42.43400239 8.48387945 45.76635742 8.53222656 C49.17176555 8.58261084 52.5770882 8.63820823 55.98242188 8.69335938 C62.65487967 8.80036699 69.32740174 8.90216524 76 9 C76 9.33 76 9.66 76 10 C68.42825827 10.02323606 60.85652027 10.0409723 53.28475094 10.05181217 C49.76835299 10.05701644 46.25197955 10.06406918 42.7355957 10.07543945 C38.68700941 10.08844772 34.63844861 10.09324852 30.58984375 10.09765625 C29.33541977 10.10281754 28.08099579 10.10797882 26.78855896 10.11329651 C11.44467436 10.11427808 11.44467436 10.11427808 4.5625 6.4375 C3.69753906 5.98246094 2.83257812 5.52742187 1.94140625 5.05859375 C1.30074219 4.70925781 0.66007812 4.35992187 0 4 C0 2.68 0 1.36 0 0 Z " fill="#D5ECBE" transform="translate(310,164)"></path>
<path d="M0 0 C0.33 0 0.66 0 1 0 C1 13.2 1 26.4 1 40 C0.67 40 0.34 40 0 40 C-0.33 29.77 -0.66 19.54 -1 9 C-3.17669509 12.62782514 -5.18485689 16.05619721 -6.8125 19.9375 C-8.43924048 22.76289137 -10.64519537 24.76913245 -13 27 C-14 24 -14 24 -12.6875 21.3125 C-11.8521875 20.1678125 -11.8521875 20.1678125 -11 19 C-10.34 19 -9.68 19 -9 19 C-8.9175 18.278125 -8.835 17.55625 -8.75 16.8125 C-7.84092732 13.40347744 -6.272193 11.67316824 -4 9 C-2.0407646 6.02486476 -0.650821 3.51443342 0 0 Z " fill="#4C9E4E" transform="translate(385,232)"></path>
<path d="M0 0 C1.3277563 3.8652461 0.88587327 7.4093071 0.5625 11.4375 C0.23283209 15.6397226 -0.07311172 19.78389096 0 24 C-0.5775 24.103125 -1.155 24.20625 -1.75 24.3125 C-4.51547437 25.15750606 -5.97723199 25.90748137 -8 28 C-8.81314911 31.60465748 -8.81314911 31.60465748 -9 35 C-9.33 35 -9.66 35 -10 35 C-11.60203865 26.03206626 -11.60203865 26.03206626 -9.25 22 C-7 20 -7 20 -4 18 C-3.31924436 15.30025115 -2.79645732 12.73947256 -2.375 10 C-1.08984375 2.1796875 -1.08984375 2.1796875 0 0 Z " fill="#69B25B" transform="translate(280,237)"></path>
<path d="M0 0 C0.66 0 1.32 0 2 0 C3.35439668 2.70879335 3.06501451 5.00933268 3 8 C2.67 8 2.34 8 2 8 C2 6.35 2 4.7 2 3 C-15.82 3.33 -33.64 3.66 -52 4 C-51.67 3.34 -51.34 2.68 -51 2 C-44.60580063 0.64560249 -37.81691896 0.87165239 -31.30859375 0.9375 C-30.4372731 0.94128662 -29.56595245 0.94507324 -28.66822815 0.94897461 C-25.92459825 0.9610545 -23.18108067 0.97971117 -20.4375 1 C-16.79036793 1.02650853 -13.14328519 1.04649169 -9.49609375 1.0625 C-8.65767441 1.07079834 -7.81925507 1.07909668 -6.95542908 1.08764648 C-4.97008942 1.09618026 -2.98463864 1.05344029 -1 1 C-0.67 0.67 -0.34 0.34 0 0 Z " fill="#349D4E" transform="translate(220,295)"></path>
<path d="M0 0 C0.33 0 0.66 0 1 0 C1.00808685 0.64400253 1.01617371 1.28800507 1.02450562 1.95152283 C1.11089478 8.68442764 1.21041163 15.41704962 1.31738281 22.1496582 C1.35554843 24.65872428 1.39042246 27.16784275 1.421875 29.67700195 C1.46779567 33.29397241 1.52574559 36.91058599 1.5859375 40.52734375 C1.59748871 41.64020248 1.60903992 42.75306122 1.62094116 43.89964294 C1.73937876 50.22050662 2.39758056 55.87988226 4 62 C3.01 61.67 2.02 61.34 1 61 C-0.25357758 57.85485311 -0.12093547 54.6628317 -0.11352539 51.31347656 C-0.11344986 50.17259583 -0.11337433 49.03171509 -0.11329651 47.85626221 C-0.10813522 46.63010193 -0.10297394 45.40394165 -0.09765625 44.140625 C-0.0962413 42.88111023 -0.09482635 41.62159546 -0.09336853 40.32391357 C-0.08872073 36.98334881 -0.07974281 33.64285279 -0.06866455 30.30230713 C-0.05841598 26.8903462 -0.05386354 23.47837815 -0.04882812 20.06640625 C-0.03779963 13.3775852 -0.02106189 6.68879657 0 0 Z " fill="#166341" transform="translate(114,336)"></path>
<path d="M0 0 C0.99 0.33 1.98 0.66 3 1 C1.71937515 2.7074998 0.38232443 4.37373596 -1 6 C-1.66 6 -2.32 6 -3 6 C-3.185625 6.56074219 -3.37125 7.12148438 -3.5625 7.69921875 C-5.65606179 11.05005543 -8.71690186 12.76550809 -12 14.8125 C-12.64195312 15.23208984 -13.28390625 15.65167969 -13.9453125 16.08398438 C-15.58743365 17.12662824 -17.29050989 18.07193123 -19 19 C-19.66 18.67 -20.32 18.34 -21 18 C-19.95902475 15.04741566 -19.2139712 14.11818743 -16.42578125 12.578125 C-15.39839844 12.13984375 -14.37101562 11.7015625 -13.3125 11.25 C-7.40451173 8.47729792 -3.79165367 5.26025193 0 0 Z " fill="#4EB054" transform="translate(364,261)"></path>
<path d="M0 0 C1.08892712 2.83121051 0.96109941 4.16532751 0.25 7.1875 C-0.1625 8.115625 -0.575 9.04375 -1 10 C-1.99 10.33 -2.98 10.66 -4 11 C-6.99044704 15.65180651 -7.1253954 20.60799781 -7 26 C-6.34 26 -5.68 26 -5 26 C-5 28.64 -5 31.28 -5 34 C-7.62587906 31.37412094 -7.85778351 29.22718377 -8.6875 25.625 C-8.95949219 24.48289062 -9.23148437 23.34078125 -9.51171875 22.1640625 C-10.15421202 18.00070608 -9.90325007 16.24508155 -7.44140625 12.8515625 C-6.51134766 11.74941406 -6.51134766 11.74941406 -5.5625 10.625 C-2.80018241 7.20040544 -1.0058826 4.35882458 0 0 Z " fill="#B3D4AD" transform="translate(277,246)"></path>
<path d="M0 0 C0.66 0.33 1.32 0.66 2 1 C0.63875 2.2065625 0.63875 2.2065625 -0.75 3.4375 C-7.38018469 10.14605567 -8.65785893 17.84772645 -9 27 C-9.33 27 -9.66 27 -10 27 C-10.55353075 12.21867882 -10.55353075 12.21867882 -7 6 C-6.34 6 -5.68 6 -5 6 C-5.33 5.01 -5.66 4.02 -6 3 C-4.03533587 1.93224776 -2.03144641 0.93446535 0 0 Z " fill="#B1D4A3" transform="translate(231,218)"></path>
<path d="M0 0 C3.10398978 -0.08710289 6.20766548 -0.14042309 9.3125 -0.1875 C10.19357422 -0.21263672 11.07464844 -0.23777344 11.98242188 -0.26367188 C13.25375977 -0.27817383 13.25375977 -0.27817383 14.55078125 -0.29296875 C15.72120972 -0.31653442 15.72120972 -0.31653442 16.9152832 -0.34057617 C19.49903853 0.08152696 20.36292167 1.01489942 22 3 C21.01 3.495 21.01 3.495 20 4 C19.34 3.67 18.68 3.34 18 3 C15.38481275 2.90131369 12.80215266 2.86103035 10.1875 2.875 C9.11918945 2.86919922 9.11918945 2.86919922 8.02929688 2.86328125 C4.22719071 2.87031567 0.69512993 3.085292 -3 4 C-3 3.34 -3 2.68 -3 2 C-2.01 2 -1.02 2 0 2 C0 1.34 0 0.68 0 0 Z " fill="#A8CE90" transform="translate(240,211)"></path>
<path d="M0 0 C2.0625 0.4375 2.0625 0.4375 4 1 C3.401875 1.391875 2.80375 1.78375 2.1875 2.1875 C-0.30558536 4.2531993 -1.42627816 6.18041504 -3 9 C-3.680625 9.99 -4.36125 10.98 -5.0625 12 C-6.76954061 14.64315965 -7.95749268 17.04622927 -9 20 C-10.33721005 15.94288652 -9.50869078 13.60908988 -7.9609375 9.75390625 C-6.71185352 7.47407411 -5.35292244 6.98670941 -3 6 C-1.78130071 3.49552484 -1.78130071 3.49552484 -1 1 C-0.67 0.67 -0.34 0.34 0 0 Z " fill="#ADD068" transform="translate(124,92)"></path>
<path d="M0 0 C-1.32 0.33 -2.64 0.66 -4 1 C-4 1.66 -4 2.32 -4 3 C-4.93972656 3.36351563 -4.93972656 3.36351563 -5.8984375 3.734375 C-6.71570313 4.06953125 -7.53296875 4.4046875 -8.375 4.75 C-9.59316406 5.23726563 -9.59316406 5.23726563 -10.8359375 5.734375 C-13.37693201 7.22044399 -13.82991963 8.36731917 -15 11 C-17.625 12.75 -17.625 12.75 -20 14 C-16.87581402 6.61556041 -12.27001028 3.24664644 -5.3046875 -0.21484375 C-3 -1 -3 -1 0 0 Z " fill="#D6EAA9" transform="translate(136,87)"></path>
<path d="M0 0 C-2.88598835 2.89168064 -4.93926601 4.27251682 -8.98828125 4.390625 C-10.430209 4.36428842 -11.8718864 4.3169454 -13.3125 4.25 C-14.42334961 4.22292969 -14.42334961 4.22292969 -15.55664062 4.1953125 C-17.3716571 4.14847337 -19.18600166 4.07673789 -21 4 C-20.34 3.34 -19.68 2.68 -19 2 C-17.948125 2.020625 -16.89625 2.04125 -15.8125 2.0625 C-11.92578386 2.24076654 -11.92578386 2.24076654 -8.375 0.4375 C-4.85286824 -1.06266723 -3.55103528 -1.18367843 0 0 Z " fill="#095A37" transform="translate(372,409)"></path>
<path d="M0 0 C0.66 0.33 1.32 0.66 2 1 C0.6696875 2.175625 0.6696875 2.175625 -0.6875 3.375 C-4.64695917 7.28743471 -6.75338592 11.96997025 -9 17 C-9.33 17 -9.66 17 -10 17 C-10 14.69 -10 12.38 -10 10 C-9.01 10 -8.02 10 -7 10 C-6.87625 9.21625 -6.7525 8.4325 -6.625 7.625 C-5.69311745 3.7110933 -3.12729457 2.29334935 0 0 Z " fill="#3EA456" transform="translate(125,316)"></path>
<path d="M0 0 C1.3835924 1.28110407 2.70220368 2.63205253 4 4 C4.71736328 4.74636719 4.71736328 4.74636719 5.44921875 5.5078125 C7.71830676 8.18098468 9.06037562 9.85103357 8.87109375 13.453125 C8.3666473 15.69667707 7.7708906 17.83463213 7 20 C6 17 6 17 6.125 14.5625 C5.97024064 11.38993309 5.09794573 10.33105081 3 8 C2.443125 7.525625 1.88625 7.05125 1.3125 6.5625 C-0.51870783 4.38249068 -0.22364494 2.75828756 0 0 Z " fill="#AED4AA" transform="translate(224,252)"></path>
<path d="M0 0 C0.66 0.33 1.32 0.66 2 1 C1.8125 2.875 1.8125 2.875 1 5 C-3.03505709 7.32321469 -7.44720523 7.53700392 -12 8 C-12 7.34 -12 6.68 -12 6 C-11.34 6 -10.68 6 -10 6 C-9.67 5.34 -9.34 4.68 -9 4 C-6.69 4 -4.38 4 -2 4 C-2 3.01 -2 2.02 -2 1 C-1.34 0.67 -0.68 0.34 0 0 Z " fill="#33A04E" transform="translate(154,298)"></path>
<path d="M0 0 C1.2065625 0.0309375 1.2065625 0.0309375 2.4375 0.0625 C-3.93479707 4.31069805 -7.95927406 6.43928476 -15.5625 7.0625 C-16.90334736 7.36419066 -18.2431062 7.67767681 -19.5625 8.0625 C-16.93793768 4.12565653 -15.01293101 4.10360832 -10.5 2.9375 C-6.97391801 2.0139171 -3.42205882 0.08346485 0 0 Z " fill="#1B8E3C" transform="translate(327.5625,286.9375)"></path>
<path d="M0 0 C3.05366477 2.03577651 4.73577769 3.53509442 6 7 C5.9765625 10.234375 5.9765625 10.234375 5.625 13.75 C5.51414062 14.92046875 5.40328125 16.0909375 5.2890625 17.296875 C5.19367188 18.18890625 5.09828125 19.0809375 5 20 C4.67 20 4.34 20 4 20 C3.87882812 19.10796875 3.75765625 18.2159375 3.6328125 17.296875 C3.46523438 16.12640625 3.29765625 14.9559375 3.125 13.75 C2.96257812 12.58984375 2.80015625 11.4296875 2.6328125 10.234375 C2.07482334 7.38243039 1.33005519 5.52598717 0 3 C0 2.01 0 1.02 0 0 Z " fill="#9FCA8D" transform="translate(274,225)"></path>
<path d="M0 0 C0.66 0 1.32 0 2 0 C2 0.66 2 1.32 2 2 C2.680625 2.268125 3.36125 2.53625 4.0625 2.8125 C7.39710809 4.16053306 10.69743237 5.57536298 14 7 C14 7.66 14 8.32 14 9 C8.93001981 8.34580901 4.58009223 6.1453591 0 4 C0 2.68 0 1.36 0 0 Z " fill="#B5D692" transform="translate(310,164)"></path>
<path d="M0 0 C0.99 0 1.98 0 3 0 C1.53289058 4.84146109 -1.3512744 8.55948972 -5 12 C-5.66 12 -6.32 12 -7 12 C-6.67 10.35 -6.34 8.7 -6 7 C-5.38125 6.95875 -4.7625 6.9175 -4.125 6.875 C-3.42375 6.58625 -2.7225 6.2975 -2 6 C-0.6954344 3.00384054 -0.6954344 3.00384054 0 0 Z " fill="#4B866C" transform="translate(382,397)"></path>
<path d="M0 0 C2.48587357 0.33144981 3.67459316 0.61261091 5.3125 2.5625 C6.3486671 6.23618337 5.62521647 9.24870119 5 13 C4.01 12.67 3.02 12.34 2 12 C2.33 11.01 2.66 10.02 3 9 C3 7.68 3 6.36 3 5 C1.68 4.34 0.36 3.68 -1 3 C-0.67 2.01 -0.34 1.02 0 0 Z " fill="#6AAC63" transform="translate(225,259)"></path>
<path d="M0 0 C-0.75925781 0.48210937 -1.51851562 0.96421875 -2.30078125 1.4609375 C-3.29464844 2.09257812 -4.28851563 2.72421875 -5.3125 3.375 C-6.29863281 4.00148438 -7.28476563 4.62796875 -8.30078125 5.2734375 C-10.21287929 6.49651613 -12.1114034 7.7409356 -14 9 C-13.25 6.5625 -13.25 6.5625 -12 4 C-9.9375 3.375 -9.9375 3.375 -8 3 C-7.67 2.01 -7.34 1.02 -7 0 C-3.86650268 -1.04449911 -3.01031744 -0.93423645 0 0 Z " fill="#3FA955" transform="translate(141,307)"></path>
<path d="M0 0 C0 3.57811631 -0.86465142 4.26675381 -3 7 C-3.33 7.99 -3.66 8.98 -4 10 C-6.5625 11.6875 -6.5625 11.6875 -9 13 C-8.37240135 10.07120629 -7.41377341 7.63904371 -6 5 C-5.34 5 -4.68 5 -4 5 C-4 4.34 -4 3.68 -4 3 C-2 1.375 -2 1.375 0 0 Z " fill="#42A544" transform="translate(380,246)"></path>
<path d="M0 0 C0.66 0.33 1.32 0.66 2 1 C0.17251097 3.46313739 -1.22976216 4.83428618 -4.26953125 5.48828125 C-6.51479346 5.72518293 -8.74455578 5.90361349 -11 6 C-7.57874946 3.12614955 -4.16111563 1.54115394 0 0 Z " fill="#1F913B" transform="translate(343,280)"></path>
<path d="M0 0 C0.33 0.66 0.66 1.32 1 2 C1.66 2.33 2.32 2.66 3 3 C2.67 4.32 2.34 5.64 2 7 C2.99 7.33 3.98 7.66 5 8 C4.67 11.63 4.34 15.26 4 19 C3.01 18.67 2.02 18.34 1 18 C1.66 18 2.32 18 3 18 C2.86722656 17.3709375 2.73445313 16.741875 2.59765625 16.09375 C1.49250818 10.73741189 0.60395788 5.43562094 0 0 Z " fill="#9FD1AA" transform="translate(273,286)"></path>
<path d="M0 0 C0.74507812 0.00451172 1.49015625 0.00902344 2.2578125 0.01367188 C4.0885764 0.02540754 5.91929873 0.0433415 7.75 0.0625 C7.75 0.3925 7.75 0.7225 7.75 1.0625 C7.09773438 1.12308594 6.44546875 1.18367188 5.7734375 1.24609375 C1.05886966 1.69808034 -3.57961288 2.26511683 -8.25 3.0625 C-9.24 3.0625 -10.23 3.0625 -11.25 3.0625 C-11.58 2.4025 -11.91 1.7425 -12.25 1.0625 C-8.15996141 -0.08732602 -4.21822949 -0.04844256 0 0 Z " fill="#108A3B" transform="translate(182.25,297.9375)"></path>
<path d="M0 0 C2.64 0.33 5.28 0.66 8 1 C7.34 2.98 6.68 4.96 6 7 C5.34 7 4.68 7 4 7 C4 6.34 4 5.68 4 5 C3.34 5 2.68 5 2 5 C1.34 3.35 0.68 1.7 0 0 Z " fill="#828283" transform="translate(231,249)"></path>
<path d="M0 0 C1.65 0 3.3 0 5 0 C5.268125 0.639375 5.53625 1.27875 5.8125 1.9375 C6.88667752 4.33131686 6.88667752 4.33131686 10 5 C7 6 7 6 5.17578125 5.22265625 C3.45052083 4.1484375 1.72526042 3.07421875 0 2 C0 1.34 0 0.68 0 0 Z " fill="#6EA189" transform="translate(123,407)"></path>
<path d="M0 0 C0.66 0.33 1.32 0.66 2 1 C1.67 1.99 1.34 2.98 1 4 C-5.625 5 -5.625 5 -9 5 C-3.375 1.125 -3.375 1.125 0 0 Z " fill="#0E873C" transform="translate(144,305)"></path>
<path d="M0 0 C0.66 0 1.32 0 2 0 C2 1.32 2 2.64 2 4 C2.66 4.33 3.32 4.66 4 5 C3.34 5 2.68 5 2 5 C2.33 6.98 2.66 8.96 3 11 C2.01 10.67 1.02 10.34 0 10 C-1.125 2.25 -1.125 2.25 0 0 Z " fill="#5AA65B" transform="translate(275,283)"></path>
<path d="M0 0 C0.66 0.33 1.32 0.66 2 1 C1.38125 1.2475 0.7625 1.495 0.125 1.75 C-2.16137472 2.81105913 -2.16137472 2.81105913 -2.875 5.0625 C-3.24625 5.701875 -3.6175 6.34125 -4 7 C-7.125 7.75 -7.125 7.75 -10 8 C-6.97727468 4.74475735 -3.74281699 2.38179263 0 0 Z " fill="#21953C" transform="translate(355,272)"></path>
<path d="M0 0 C0.66 0 1.32 0 2 0 C2 0.66 2 1.32 2 2 C2.99 2.33 3.98 2.66 5 3 C5 3.66 5 4.32 5 5 C5.66 5.33 6.32 5.66 7 6 C7 6.99 7 7.98 7 9 C5.109375 8.75390625 5.109375 8.75390625 3 8 C1.953125 6.15234375 1.953125 6.15234375 1.25 3.9375 C1.00765625 3.20402344 0.7653125 2.47054687 0.515625 1.71484375 C0.34546875 1.14894531 0.1753125 0.58304688 0 0 Z " fill="#76B65F" transform="translate(272,219)"></path>
<path d="M0 0 C-0.33 0.99 -0.66 1.98 -1 3 C-1.928125 2.95875 -2.85625 2.9175 -3.8125 2.875 C-7.15809719 2.72863661 -7.15809719 2.72863661 -10 5 C-10 4.34 -10 3.68 -10 3 C-10.99 2.67 -11.98 2.34 -13 2 C-11.58461283 1.66127487 -10.16762037 1.32925376 -8.75 1 C-7.56664062 0.7215625 -7.56664062 0.7215625 -6.359375 0.4375 C-4 0 -4 0 0 0 Z " fill="#148A3C" transform="translate(169,299)"></path>
<path d="M0 0 C0.99 0.33 1.98 0.66 3 1 C4.1875 3.5625 4.1875 3.5625 5 6 C2.69 6 0.38 6 -2 6 C-1.34 4.02 -0.68 2.04 0 0 Z " fill="#7A7B7B" transform="translate(379,159)"></path>
<path d="M0 0 C0.89203125 0.01804687 1.7840625 0.03609375 2.703125 0.0546875 C3.71632813 0.08949219 3.71632813 0.08949219 4.75 0.125 C4.42 0.785 4.09 1.445 3.75 2.125 C-0.91289322 2.97986376 -4.62627754 3.42542194 -9.25 2.125 C-6.03817851 0.21891902 -3.71117397 -0.09766247 0 0 Z " fill="#108939" transform="translate(290.25,295.875)"></path>
<path d="M0 0 C0.33 0.66 0.66 1.32 1 2 C-0.26213042 5.78639125 -1.65345351 6.04104596 -5 8 C-5.66 8.99 -6.32 9.98 -7 11 C-6.58485103 6.1565954 -4.53791301 4.18412171 -1 1 C-0.67 0.67 -0.34 0.34 0 0 Z " fill="#6BAD62" transform="translate(276,255)"></path>
<path d="M0 0 C2.97 0.495 2.97 0.495 6 1 C6.66 3.31 7.32 5.62 8 8 C7.34 7.67 6.68 7.34 6 7 C6 6.34 6 5.68 6 5 C5.38125 4.731875 4.7625 4.46375 4.125 4.1875 C2 3 2 3 0 0 Z " fill="#ACD198" transform="translate(266,217)"></path>
<path d="M0 0 C1.37562854 1.28965176 2.70766393 2.62689293 4 4 C4 4.66 4 5.32 4 6 C4.66 6 5.32 6 6 6 C6 6.66 6 7.32 6 8 C1.125 7.125 1.125 7.125 0 6 C-0.04080783 4.00041636 -0.04254356 1.99954746 0 0 Z " fill="#BED99B" transform="translate(304,156)"></path>
<path d="M0 0 C0.98484375 0.00902344 1.9696875 0.01804687 2.984375 0.02734375 C4.10585937 0.04474609 4.10585937 0.04474609 5.25 0.0625 C5.25 0.7225 5.25 1.3825 5.25 2.0625 C-2.67 2.5575 -2.67 2.5575 -10.75 3.0625 C-9.75 1.0625 -9.75 1.0625 -8.046875 0.44140625 C-5.32835155 -0.00705765 -2.75442923 -0.03279082 0 0 Z " fill="#3BA852" transform="translate(178.75,295.9375)"></path>
<path d="M0 0 C-2.52480693 2.52480693 -4.13823034 2.55738633 -7.625 3.125 C-8.62789063 3.29257812 -9.63078125 3.46015625 -10.6640625 3.6328125 C-11.43492187 3.75398438 -12.20578125 3.87515625 -13 4 C-12.67 3.01 -12.34 2.02 -12 1 C-7.9472484 0.01751476 -4.16138263 -0.08159574 0 0 Z " fill="#47AE5A" transform="translate(316,290)"></path>
<path d="M0 0 C0.66 0 1.32 0 2 0 C1.34 4.62 0.68 9.24 0 14 C-0.33 14 -0.66 14 -1 14 C-2.51708428 4.58997722 -2.51708428 4.58997722 0 0 Z " fill="#A2D0A7" transform="translate(224,290)"></path>
<path d="M0 0 C2 1 2 1 2.8515625 3.06640625 C3.10679687 3.89011719 3.36203125 4.71382812 3.625 5.5625 C3.88539063 6.38878906 4.14578125 7.21507812 4.4140625 8.06640625 C4.60742188 8.70449219 4.80078125 9.34257812 5 10 C4.01 10.66 3.02 11.32 2 12 C1.1031286 9.3093858 0.72140874 7.11102904 0.4375 4.3125 C0.35371094 3.50425781 0.26992188 2.69601563 0.18359375 1.86328125 C0.12300781 1.24839844 0.06242187 0.63351563 0 0 Z " fill="#98C363" transform="translate(299,148)"></path>
<path d="M0 0 C0.33 0.99 0.66 1.98 1 3 C0.67 3.66 0.34 4.32 0 5 C-0.2275015 6.87056791 -0.40962811 8.74685958 -0.5625 10.625 C-0.64628906 11.62789062 -0.73007813 12.63078125 -0.81640625 13.6640625 C-0.87699219 14.43492187 -0.93757812 15.20578125 -1 16 C-1.33 16 -1.66 16 -2 16 C-2.05384521 13.70858714 -2.09272087 11.41681812 -2.125 9.125 C-2.14820313 7.84882813 -2.17140625 6.57265625 -2.1953125 5.2578125 C-2 2 -2 2 0 0 Z " fill="#BAE0B3" transform="translate(223,229)"></path>
<path d="M0 0 C0.33 0.99 0.66 1.98 1 3 C0.01 3.66 -0.98 4.32 -2 5 C-2.73606499 8.56769552 -2.73606499 8.56769552 -3 12 C-3.33 12 -3.66 12 -4 12 C-4.22893297 8.96663814 -4.36475845 6.02534949 -4 3 C-2 0.9375 -2 0.9375 0 0 Z " fill="#5CAE55" transform="translate(274,260)"></path>
<path d="M0 0 C0.66 0 1.32 0 2 0 C3.49821059 3.37097383 4 5.20442119 4 9 C3.34 9 2.68 9 2 9 C2 7.68 2 6.36 2 5 C1.34 5 0.68 5 0 5 C0 3.35 0 1.7 0 0 Z " fill="#6CAE63" transform="translate(220,247)"></path>
<path d="M0 0 C-2.3125 2.0625 -2.3125 2.0625 -5 4 C-5.99 3.67 -6.98 3.34 -8 3 C-7.67 2.01 -7.34 1.02 -7 0 C-4.3333581 -1.33332095 -2.83319697 -0.67102033 0 0 Z " fill="#0E613C" transform="translate(372,409)"></path>
<path d="M0 0 C1.46534385 3.80989402 0.55203911 6.3241179 -1 10 C-1.99 10.495 -1.99 10.495 -3 11 C-2.32829194 7.1936543 -1.27253436 3.64793184 0 0 Z " fill="#B2D5A8" transform="translate(277,246)"></path>
<path d="M0 0 C0.33 0 0.66 0 1 0 C0.67 2.97 0.34 5.94 0 9 C-0.66 9 -1.32 9 -2 9 C-2 7.02 -2 5.04 -2 3 C-1.34 3 -0.68 3 0 3 C0 2.01 0 1.02 0 0 Z " fill="#65AA64" transform="translate(227,275)"></path>
<path d="M0 0 C-2.52956528 3.0916909 -5.22454612 3.90931332 -9 5 C-7.35234966 0.05704899 -4.76872479 -0.25776891 0 0 Z " fill="#8FC176" transform="translate(237,215)"></path>
<path d="M0 0 C1.26710868 2.53421737 1.28056176 4.19438238 1 7 C0.01 7.66 -0.98 8.32 -2 9 C-2.6875 7.3125 -2.6875 7.3125 -3 5 C-1.5625 2.25 -1.5625 2.25 0 0 Z " fill="#0F7C3B" transform="translate(118,328)"></path>
<path d="M0 0 C1.98 0.495 1.98 0.495 4 1 C4.33 2.32 4.66 3.64 5 5 C3.02 4.34 1.04 3.68 -1 3 C-0.67 2.01 -0.34 1.02 0 0 Z " fill="#5EAE5A" transform="translate(225,259)"></path>
<path d="M0 0 C2.30449377 1.48677017 3.76097537 2.45365799 4.875 5 C5 7 5 7 3 10 C0 3.375 0 3.375 0 0 Z " fill="#BADFAF" transform="translate(274,225)"></path>
<path d="M0 0 C-2.62198774 2.15377564 -4.64404172 3.40072174 -8 4 C-8 3.01 -8 2.02 -8 1 C-5.29120665 -0.35439668 -2.99066732 -0.06501451 0 0 Z " fill="#B1D16C" transform="translate(140,87)"></path>
<path d="" fill="#FFFFFF" transform="translate(0,0)"></path>
<path d="" fill="#FFFFFF" transform="translate(0,0)"></path>
<path d="" fill="#FFFFFF" transform="translate(0,0)"></path>
<path d="" fill="#FFFFFF" transform="translate(0,0)"></path>
<path d="" fill="#FFFFFF" transform="translate(0,0)"></path>
<path d="" fill="#FFFFFF" transform="translate(0,0)"></path>
<path d="" fill="#FFFFFF" transform="translate(0,0)"></path>
<path d="" fill="#FFFFFF" transform="translate(0,0)"></path>
<path d="" fill="#FFFFFF" transform="translate(0,0)"></path>
<path d="" fill="#FFFFFF" transform="translate(0,0)"></path>
<path d="" fill="#FFFFFF" transform="translate(0,0)"></path>
<path d="" fill="#FFFFFF" transform="translate(0,0)"></path>
<path d="" fill="#FFFFFF" transform="translate(0,0)"></path>
<path d="" fill="#FFFFFF" transform="translate(0,0)"></path>
<path d="" fill="#FFFFFF" transform="translate(0,0)"></path>
<path d="" fill="#FFFFFF" transform="translate(0,0)"></path>
<path d="" fill="#FFFFFF" transform="translate(0,0)"></path>
<path d="" fill="#FFFFFF" transform="translate(0,0)"></path>
<path d="" fill="#FFFFFF" transform="translate(0,0)"></path>
<path d="" fill="#FFFFFF" transform="translate(0,0)"></path>
<path d="" fill="#FFFFFF" transform="translate(0,0)"></path>
<path d="" fill="#FFFFFF" transform="translate(0,0)"></path>
<path d="" fill="#FFFFFF" transform="translate(0,0)"></path>
<path d="" fill="#FFFFFF" transform="translate(0,0)"></path>
<path d="" fill="#FFFFFF" transform="translate(0,0)"></path>
<path d="" fill="#FFFFFF" transform="translate(0,0)"></path>
<path d="" fill="#FFFFFF" transform="translate(0,0)"></path>
<path d="" fill="#FFFFFF" transform="translate(0,0)"></path>
<path d="" fill="#FFFFFF" transform="translate(0,0)"></path>
<path d="" fill="#FFFFFF" transform="translate(0,0)"></path>
<path d="" fill="#FFFFFF" transform="translate(0,0)"></path>
<path d="" fill="#FFFFFF" transform="translate(0,0)"></path>
<path d="" fill="#FFFFFF" transform="translate(0,0)"></path>
<path d="" fill="#FFFFFF" transform="translate(0,0)"></path>
<path d="" fill="#FFFFFF" transform="translate(0,0)"></path>
<path d="" fill="#FFFFFF" transform="translate(0,0)"></path>
<path d="" fill="#FFFFFF" transform="translate(0,0)"></path>
<path d="" fill="#FFFFFF" transform="translate(0,0)"></path>
<path d="" fill="#FFFFFF" transform="translate(0,0)"></path>
<path d="" fill="#FFFFFF" transform="translate(0,0)"></path>
<path d="" fill="#FFFFFF" transform="translate(0,0)"></path>
<path d="" fill="#FFFFFF" transform="translate(0,0)"></path>
<path d="" fill="#FFFFFF" transform="translate(0,0)"></path>
<path d="" fill="#FFFFFF" transform="translate(0,0)"></path>
<path d="" fill="#FFFFFF" transform="translate(0,0)"></path>
<path d="" fill="#FFFFFF" transform="translate(0,0)"></path>
</svg><style>@media (prefers-color-scheme: light) { :root { filter: none; } }
@media (prefers-color-scheme: dark) { :root { filter: none; } }
</style></svg>